<svg width="375" height="812" viewBox="0 0 375 812" fill="none" xmlns="http://www.w3.org/2000/svg">
<path d="M-17.476 68.6713C9.37965 14.5745 45.2911 -78.6578 118.08 -82.8842C159.868 -85.3107 165.524 -49.1781 158.857 -14.2175C148.829 38.3746 117.163 85.0385 86.7462 127.894C55.0928 172.49 19.9807 215.249 -25.476 246.449C-39.4845 256.064 -61.6371 271.002 -80.2538 270.116C-89.7856 269.662 -84.3842 252.782 -82.8094 248.005C-60.4599 180.211 12.1758 131.058 68.3018 93.7825C156.107 35.4669 258.448 -14.2507 365.413 -20.8842C368.942 -21.1031 389.341 -24.6252 390.857 -17.5509C394.265 -1.64596 384.409 20.1894 377.746 33.6713C328.286 133.756 239.288 221.181 141.191 272.894C41.1341 325.639 -81.8537 351.116 -194.587 336.227C-209.986 334.193 -217.099 331.959 -204.587 319.116C-165.726 279.226 -116.342 246.488 -66.476 222.338C-1.71655 190.975 68.6201 171.744 138.524 155.782C204.153 140.797 270.598 130.728 337.968 128.894C384.259 127.633 512.99 131.802 477.635 213.56C462.45 248.676 428.718 279.041 400.524 303.338C353.502 343.859 300.165 376.404 242.968 400.449C134.748 445.944 20.9179 469.711 -95.6982 477.56C-96.5134 477.615 -114.182 480.614 -115.032 477.005C-117.879 464.905 -96.2361 448.384 -89.2538 442.671C-1.69836 371.035 114.77 338.173 224.857 323.894C286.627 315.882 350.346 311.663 411.857 324.116C438.283 329.466 485.004 339.613 496.413 369.227C506.506 395.426 479.624 424.822 463.524 441.227C407.906 497.899 336.474 546.65 266.746 584.005C175.937 632.653 68.3858 658.812 -34.1427 665.782C-37.3594 666.001 -60.4184 669.84 -64.5871 665.338C-69.8635 659.639 -58.6449 648.476 -55.9205 645.671C-10.2132 598.62 61.4783 574.871 124.191 562.671C168.188 554.112 213.889 551.615 258.635 553.56C286.216 554.759 326.418 556.744 345.413 581.116C368.752 611.061 326.635 650.175 307.635 668.449C282.948 692.194 254.413 712.39 226.746 732.449C188.063 760.494 148.04 784.348 102.968 800.782C67.2652 813.801 30.1013 822.734 -7.80936 825.894C-20.2672 826.932 -47.1268 831.112 -58.0316 821.116C-64.4361 815.245 -60.0625 801.416 -57.2538 795.116C-43.32 763.859 -5.43364 745.411 23.8573 732.671C135.266 684.217 263.557 657.396 384.968 660.894C405.75 661.492 454.824 659.52 470.524 680.005C486.66 701.059 437.529 733.036 426.635 741.449C346.911 803.018 260.499 852.25 162.968 879.227C134.387 887.132 105.384 892.764 75.7462 894.338C63.3831 894.994 54.0502 895.669 65.8573 884.227C109.394 842.036 180.546 832.073 237.413 825.005C293.006 818.095 349.279 814.851 405.302 816.227C428.334 816.793 450.481 818.548 472.524 824.671" stroke="#F6FFC0" stroke-width="8" stroke-linecap="round"/>
</svg>
