<svg width="375" height="812" viewBox="0 0 375 812" fill="none" xmlns="http://www.w3.org/2000/svg">
<path fill-rule="evenodd" clip-rule="evenodd" d="M0 75.532C14.0695 65.4427 28.0539 56.1074 41.0888 47.4504C61.972 33.5809 83.6986 20.1797 106.135 7.71542C107.972 4.16937 109.745 0.597924 111.442 -3L120.258 -3C119.64 -1.64599 119.011 -0.296215 118.373 1.04935C120.926 -0.313595 123.488 -1.6636 126.059 -3H143.752C133.07 2.27578 122.518 7.80852 112.109 13.5521C98.3827 39.6132 81.4265 64.0768 65.0081 87.2088C54.9795 101.338 44.581 115.319 33.5945 128.831C59.8199 121.391 86.2772 114.901 112.634 108.883C170.485 95.6736 229.029 86.259 288.323 82.9219C310.243 55.9341 329.44 27.0753 345.056 -3L354.049 -3C338.896 26.8285 320.282 55.492 299.005 82.3873C303.618 82.1854 308.237 82.0209 312.859 81.8951C327.665 81.4919 351.086 81.6292 375 84.7279V92.795C351.444 89.66 328.045 89.4846 313.077 89.8921C306.136 90.0811 299.205 90.3579 292.282 90.719C243.956 149.451 182.984 199.205 118.056 233.432C81.2477 252.836 41.3542 268.577 0 280.009V271.705C40.0216 260.483 78.6404 245.166 114.325 226.355C176.236 193.719 234.494 146.748 281.329 91.3605C225.117 95.0111 169.504 104.103 114.414 116.682C84.2972 123.559 54.1513 131.032 24.4414 139.809C16.6265 148.941 8.5032 157.808 0 166.305V154.883C3.3656 151.385 6.67368 147.827 9.9292 144.214C6.6128 145.249 3.30285 146.302 0 147.373V138.967C6.60766 136.844 13.2396 134.796 19.8903 132.815C33.5057 116.761 46.2367 99.8342 58.4843 82.5784C72.5323 62.7861 86.72 42.3427 98.8973 20.9975C80.6053 31.5182 62.7862 42.6438 45.5147 54.1145C31.0018 63.7532 15.4579 74.1396 0 85.4028V75.532ZM0 684.818C89.1809 646.408 188.962 621.768 287.387 615.295C296.182 606.668 306.623 595.729 314.02 584.022C323.752 568.619 327.304 553.464 317.258 540.575C309.671 530.841 298.212 524.811 285.108 521.04C271.303 529.3 257.433 537.139 243.635 544.531C169.527 584.231 84.43 609.014 0 620.704L0 612.627C83.2828 600.984 167.032 576.492 239.857 537.479C251.181 531.412 262.547 525.046 273.879 518.395C260.042 515.766 245.678 515.088 233.461 514.556C188.973 512.622 143.592 515.108 99.9545 523.598C67.2466 529.961 32.3046 539.444 0 553.65V544.929C32.2129 531.136 66.5755 521.941 98.4268 515.745C142.783 507.116 188.804 504.607 233.809 506.564C247.557 507.162 264.863 507.963 281.15 511.753C282.072 511.967 282.993 512.191 283.911 512.427C315.234 493.537 346.131 472.497 375 449.629V459.802C349.162 479.926 321.844 498.586 294.146 515.566C305.573 519.724 316.043 526.002 323.568 535.657C336.861 552.712 331.024 572.087 320.783 588.295C314.718 597.894 306.788 606.937 299.373 614.596C319.724 613.563 339.996 613.317 360.084 613.895C362.351 613.961 365.006 613.994 367.953 614.032C370.153 614.06 372.515 614.09 375 614.136V622.14C372.611 622.095 370.32 622.066 368.158 622.038H368.157H368.155C365.104 621.999 362.309 621.963 359.853 621.892C337.048 621.235 313.995 621.654 290.855 623.09C289.469 624.433 288.147 625.702 286.912 626.888L286.219 627.552C285.944 627.817 285.673 628.077 285.408 628.332C262.281 650.576 235.831 669.717 210.102 688.337C208.095 689.79 206.091 691.24 204.094 692.688C165.225 720.867 124.87 744.939 79.3387 761.54C53.5861 770.93 27.0513 778.222 0 782.781V774.666C26.0597 770.184 51.6741 763.112 76.5982 754.024C121.21 737.758 160.901 714.121 199.398 686.211C201.371 684.781 203.346 683.351 205.322 681.92L205.325 681.918C230.596 663.628 256.048 645.207 278.405 623.96C183.033 631.366 86.6678 655.842 0.452652 693.339C0.301968 693.405 0.151083 693.471 0 693.536V684.818ZM375 777.111C345.761 776.543 316.457 777.228 287.219 779.033C262.959 792.403 238.011 804.464 212.279 815H190.349C216.938 805.053 242.699 793.444 267.736 780.401C249.41 781.841 231.123 783.71 212.906 785.974C184.459 789.51 152.738 793.738 122.733 802.292C110.579 805.756 98.759 809.917 87.5936 815H69.8619C85.6012 806.19 102.855 799.639 120.54 794.598C151.211 785.855 183.5 781.568 211.919 778.035C236.147 775.024 260.508 772.706 284.924 771.161C315.987 753.948 345.944 734.55 375 713.421V723.292C351.602 740.1 327.598 755.804 302.884 770.165C326.91 769.023 350.973 768.646 375 769.11V777.111ZM375 266.05C372.042 268.562 369.061 271.043 366.055 273.492C369.04 273.915 372.022 274.373 375 274.867V282.979C369.147 281.986 363.275 281.136 357.387 280.42C315.308 313.392 268.832 340.406 219.519 361.137C148.464 391.007 75.0235 411.542 0 424.382L0 416.265C74.012 403.503 146.405 383.195 216.418 353.762C262.547 334.369 306.139 309.417 345.89 279.188C297.678 274.712 248.555 278.611 200.372 284.86C133.11 293.585 63.6558 309.248 0 336.395V327.709C63.7278 300.98 132.794 285.559 199.343 276.927C250.462 270.296 303.193 266.215 355.033 272.089C361.089 267.287 367.05 262.36 372.913 257.308C373.606 256.711 374.302 256.11 375 255.506V266.05Z" fill="#F6FFC0"/>
</svg>
